# xmcd
#
# Track frame offsets: 
#        150
#        17537
#        34587
#        57739
#        70520
#        86077
#        99567
#        122070
#        143617
#        160382
#        175245
#        194162
#        212315
#        230970
#        251932
#
# Disc length: 3779 seconds
#
# Revision: 3
# Processed by: cddbd v1.5.2PL0 Copyright (c) Steve Scherf et al.
# Submitted via: ExactAudioCopyFreeDBPlugin 1.0
#
DISCID=d80ec10f
DTITLE=Pat Green - Live At Billy Bob's Texas
DYEAR=1999
DGENRE=Country
TTITLE0=Me And Billy The Kid
TTITLE1=Take Me Out To A Dancehall
TTITLE2=Southbound 35
TTITLE3=Going Away
TTITLE4=Just Fine
TTITLE5=Here We Go
TTITLE6=Nightmare
TTITLE7=#2
TTITLE8=The Bottle
TTITLE9=Down To The River
TTITLE10=Dancehall Dreamer
TTITLE11=Songs About Texas
TTITLE12=1-900 Lover
TTITLE13=If I Had A Million
TTITLE14=George's Bar
EXTD=YEAR: 2000 ID3G: 72
EXTT0=
EXTT1=
EXTT2=
EXTT3=
EXTT4=
EXTT5=
EXTT6=
EXTT7=
EXTT8=
EXTT9=
EXTT10=
EXTT11=
EXTT12=
EXTT13=
EXTT14=
PLAYORDER=
